<svg xmlns="http://www.w3.org/2000/svg" width="160" height="160" viewBox="0 0 160 160">
  <circle cx="80" cy="80" r="74" fill="#6F4E37"/>
  <path d="M41 57h71v34c0 24-15 39-36 39S41 115 41 91V57z" fill="#fff"/>
  <path d="M112 68h8c17 0 17 28 0 28h-8" fill="none" stroke="#fff" stroke-width="12" stroke-linecap="round"/>
  <path d="M61 25c-8 10 8 13 0 24M84 25c-8 10 8 13 0 24" fill="none" stroke="#fff" stroke-width="8" stroke-linecap="round"/>
  <path d="M62 84c10-12 28-12 38 0-10 13-28 13-38 0z" fill="#6F4E37"/>
  <path d="M82 75c-5 6-5 13 0 19" fill="none" stroke="#fff" stroke-width="3"/>
</svg>
